<?xml version="1.0" encoding="UTF-8"?>
<svg xmlns="http://www.w3.org/2000/svg" xmlns:xlink="http://www.w3.org/1999/xlink" width="595.275591pt" height="841.889764pt" viewBox="0 0 595.275591 841.889764" version="1.2">
<g id="surface168249">
<path style="fill:none;stroke-width:4;stroke-linecap:round;stroke-linejoin:round;stroke:rgb(0%,0%,0%);stroke-opacity:1;stroke-miterlimit:4;" d="M 130.219097 107.338151 C 130.219097 153.473492 119.281608 190.87207 105.789236 190.87207 C 92.296864 190.87207 81.359375 153.473492 81.359375 107.338151 C 81.359375 61.20281 92.296864 23.802854 105.789236 23.802854 C 119.281608 23.802854 130.219097 61.20281 130.219097 107.338151 Z M 130.219097 107.338151 " transform="matrix(2.834646,0,0,2.834646,0,0)"/>
<path style="fill:none;stroke-width:4;stroke-linecap:round;stroke-linejoin:round;stroke:rgb(0%,0%,0%);stroke-opacity:1;stroke-miterlimit:4;" d="M 165.929579 61.431565 C 149.5764 61.240017 121.779991 71.188075 94.234386 87.092014 C 54.280924 110.158995 27.360948 138.33023 34.106445 150.014616 C 37.346213 155.625987 48.07424 156.607151 63.932704 152.741753 C 79.789789 148.876356 99.477821 140.482726 118.665625 129.404677 C 137.852051 118.326628 154.965907 105.475043 166.242394 93.673524 C 177.517502 81.873383 182.033333 72.092068 178.793566 66.480697 C 176.919434 63.235417 172.51798 61.507357 165.929579 61.431565 Z M 165.929579 61.431565 " transform="matrix(2.834646,0,0,2.834646,0,0)"/>
<path style="fill:none;stroke-width:4;stroke-linecap:round;stroke-linejoin:round;stroke:rgb(0%,0%,0%);stroke-opacity:1;stroke-miterlimit:4;" d="M 44.856521 60.460048 C 38.268121 60.537218 33.868045 62.265278 31.993913 65.510558 C 28.754145 71.121929 33.268598 80.903244 44.545085 92.703385 C 55.821571 104.504905 72.935428 117.357867 92.121853 128.434538 C 111.308279 139.512587 130.996311 147.907595 146.854774 151.772993 C 162.71186 155.637012 173.441265 154.657227 176.679655 149.045855 C 179.919423 143.434484 175.40497 133.653168 164.128483 121.851649 C 152.851997 110.051508 135.73814 97.198546 116.551714 86.121875 C 89.007487 70.217936 61.211079 60.269878 44.856521 60.460048 Z M 44.856521 60.460048 " transform="matrix(2.834646,0,0,2.834646,0,0)"/>
<path style=" stroke:none;fill-rule:nonzero;fill:rgb(0.392157%,0%,0%);fill-opacity:1;" d="M 109.875 244.875 L 165 244.875 L 165 300 L 109.875 300 Z M 109.875 244.875 "/>
<path style=" stroke:none;fill-rule:nonzero;fill:rgb(0.392157%,0%,0%);fill-opacity:1;" d="M 319.875 439.875 L 375 439.875 L 375 495 L 319.875 495 Z M 319.875 439.875 "/>
<path style=" stroke:none;fill-rule:nonzero;fill:rgb(0.392157%,0%,0%);fill-opacity:1;" d="M 387.375 154.875 L 442.5 154.875 L 442.5 210 L 387.375 210 Z M 387.375 154.875 "/>
<path style=" stroke:none;fill-rule:nonzero;fill:rgb(0.392157%,0%,0%);fill-opacity:1;" d="M 109.636719 583.433594 L 122.003906 583.433594 L 122.003906 595.804688 L 109.636719 595.804688 Z M 109.636719 583.433594 "/>
<path style=" stroke:none;fill-rule:nonzero;fill:rgb(0.392157%,0%,0%);fill-opacity:1;" d="M 122.003906 583.433594 L 134.375 583.433594 L 134.375 595.804688 L 122.003906 595.804688 Z M 122.003906 583.433594 "/>
<path style=" stroke:none;fill-rule:nonzero;fill:rgb(0.392157%,0%,0%);fill-opacity:1;" d="M 109.636719 595.804688 L 122.003906 595.804688 L 122.003906 608.171875 L 109.636719 608.171875 Z M 109.636719 595.804688 "/>
<path style=" stroke:none;fill-rule:nonzero;fill:rgb(0.392157%,0%,0%);fill-opacity:1;" d="M 122.003906 595.804688 L 134.375 595.804688 L 134.375 608.171875 L 122.003906 608.171875 Z M 122.003906 595.804688 "/>
<path style=" stroke:none;fill-rule:nonzero;fill:rgb(0.392157%,0%,0%);fill-opacity:1;" d="M 109.636719 608.171875 L 122.003906 608.171875 L 122.003906 620.542969 L 109.636719 620.542969 Z M 109.636719 608.171875 "/>
<path style=" stroke:none;fill-rule:nonzero;fill:rgb(0.392157%,0%,0%);fill-opacity:1;" d="M 122.003906 608.171875 L 134.375 608.171875 L 134.375 620.542969 L 122.003906 620.542969 Z M 122.003906 608.171875 "/>
<path style=" stroke:none;fill-rule:nonzero;fill:rgb(0.392157%,0%,0%);fill-opacity:1;" d="M 109.636719 620.542969 L 122.003906 620.542969 L 122.003906 632.910156 L 109.636719 632.910156 Z M 109.636719 620.542969 "/>
<path style=" stroke:none;fill-rule:nonzero;fill:rgb(0.392157%,0%,0%);fill-opacity:1;" d="M 122.003906 620.542969 L 134.375 620.542969 L 134.375 632.910156 L 122.003906 632.910156 Z M 122.003906 620.542969 "/>
<path style=" stroke:none;fill-rule:nonzero;fill:rgb(0.392157%,0%,0%);fill-opacity:1;" d="M 109.636719 632.910156 L 122.003906 632.910156 L 122.003906 645.277344 L 109.636719 645.277344 Z M 109.636719 632.910156 "/>
<path style=" stroke:none;fill-rule:nonzero;fill:rgb(0.392157%,0%,0%);fill-opacity:1;" d="M 122.003906 632.910156 L 134.375 632.910156 L 134.375 645.277344 L 122.003906 645.277344 Z M 122.003906 632.910156 "/>
<path style=" stroke:none;fill-rule:nonzero;fill:rgb(0.392157%,0%,0%);fill-opacity:1;" d="M 109.636719 645.277344 L 122.003906 645.277344 L 122.003906 657.648438 L 109.636719 657.648438 Z M 109.636719 645.277344 "/>
<path style=" stroke:none;fill-rule:nonzero;fill:rgb(0.392157%,0%,0%);fill-opacity:1;" d="M 122.003906 645.277344 L 134.375 645.277344 L 134.375 657.648438 L 122.003906 657.648438 Z M 122.003906 645.277344 "/>
<path style=" stroke:none;fill-rule:nonzero;fill:rgb(0.392157%,0%,0%);fill-opacity:1;" d="M 109.636719 657.648438 L 122.003906 657.648438 L 122.003906 670.015625 L 109.636719 670.015625 Z M 109.636719 657.648438 "/>
<path style=" stroke:none;fill-rule:nonzero;fill:rgb(0.392157%,0%,0%);fill-opacity:1;" d="M 122.003906 657.648438 L 134.375 657.648438 L 134.375 670.015625 L 122.003906 670.015625 Z M 122.003906 657.648438 "/>
<path style=" stroke:none;fill-rule:nonzero;fill:rgb(0.392157%,0%,0%);fill-opacity:1;" d="M 109.636719 670.015625 L 122.003906 670.015625 L 122.003906 682.386719 L 109.636719 682.386719 Z M 109.636719 670.015625 "/>
<path style=" stroke:none;fill-rule:nonzero;fill:rgb(0.392157%,0%,0%);fill-opacity:1;" d="M 122.003906 670.015625 L 134.375 670.015625 L 134.375 682.386719 L 122.003906 682.386719 Z M 122.003906 670.015625 "/>
<path style=" stroke:none;fill-rule:nonzero;fill:rgb(0.392157%,0%,0%);fill-opacity:1;" d="M 146.742188 571.066406 L 159.113281 571.066406 L 159.113281 583.433594 L 146.742188 583.433594 Z M 146.742188 571.066406 "/>
<path style=" stroke:none;fill-rule:nonzero;fill:rgb(0.392157%,0%,0%);fill-opacity:1;" d="M 159.113281 571.066406 L 171.480469 571.066406 L 171.480469 583.433594 L 159.113281 583.433594 Z M 159.113281 571.066406 "/>
<path style=" stroke:none;fill-rule:nonzero;fill:rgb(0.392157%,0%,0%);fill-opacity:1;" d="M 171.480469 571.066406 L 183.851562 571.066406 L 183.851562 583.433594 L 171.480469 583.433594 Z M 171.480469 571.066406 "/>
<path style=" stroke:none;fill-rule:nonzero;fill:rgb(0.392157%,0%,0%);fill-opacity:1;" d="M 146.742188 583.433594 L 159.113281 583.433594 L 159.113281 595.804688 L 146.742188 595.804688 Z M 146.742188 583.433594 "/>
<path style=" stroke:none;fill-rule:nonzero;fill:rgb(0.392157%,0%,0%);fill-opacity:1;" d="M 159.113281 583.433594 L 171.480469 583.433594 L 171.480469 595.804688 L 159.113281 595.804688 Z M 159.113281 583.433594 "/>
<path style=" stroke:none;fill-rule:nonzero;fill:rgb(0.392157%,0%,0%);fill-opacity:1;" d="M 122.007812 571.066406 L 134.375 571.066406 L 134.375 583.433594 L 122.007812 583.433594 Z M 122.007812 571.066406 "/>
<path style=" stroke:none;fill-rule:nonzero;fill:rgb(0.392157%,0%,0%);fill-opacity:1;" d="M 134.375 571.066406 L 146.742188 571.066406 L 146.742188 583.433594 L 134.375 583.433594 Z M 134.375 571.066406 "/>
<path style=" stroke:none;fill-rule:nonzero;fill:rgb(0.392157%,0%,0%);fill-opacity:1;" d="M 122.007812 583.433594 L 134.375 583.433594 L 134.375 595.804688 L 122.007812 595.804688 Z M 122.007812 583.433594 "/>
<path style=" stroke:none;fill-rule:nonzero;fill:rgb(0.392157%,0%,0%);fill-opacity:1;" d="M 171.480469 583.433594 L 183.851562 583.433594 L 183.851562 595.804688 L 171.480469 595.804688 Z M 171.480469 583.433594 "/>
<path style=" stroke:none;fill-rule:nonzero;fill:rgb(0.392157%,0%,0%);fill-opacity:1;" d="M 171.480469 595.804688 L 183.851562 595.804688 L 183.851562 608.171875 L 171.480469 608.171875 Z M 171.480469 595.804688 "/>
<path style=" stroke:none;fill-rule:nonzero;fill:rgb(0.392157%,0%,0%);fill-opacity:1;" d="M 183.851562 595.804688 L 196.21875 595.804688 L 196.21875 608.171875 L 183.851562 608.171875 Z M 183.851562 595.804688 "/>
<path style=" stroke:none;fill-rule:nonzero;fill:rgb(0.392157%,0%,0%);fill-opacity:1;" d="M 171.480469 608.171875 L 183.851562 608.171875 L 183.851562 620.542969 L 171.480469 620.542969 Z M 171.480469 608.171875 "/>
<path style=" stroke:none;fill-rule:nonzero;fill:rgb(0.392157%,0%,0%);fill-opacity:1;" d="M 183.851562 608.171875 L 196.21875 608.171875 L 196.21875 620.542969 L 183.851562 620.542969 Z M 183.851562 608.171875 "/>
<path style=" stroke:none;fill-rule:nonzero;fill:rgb(0.392157%,0%,0%);fill-opacity:1;" d="M 171.480469 620.542969 L 183.851562 620.542969 L 183.851562 632.910156 L 171.480469 632.910156 Z M 171.480469 620.542969 "/>
<path style=" stroke:none;fill-rule:nonzero;fill:rgb(0.392157%,0%,0%);fill-opacity:1;" d="M 183.851562 620.542969 L 196.21875 620.542969 L 196.21875 632.910156 L 183.851562 632.910156 Z M 183.851562 620.542969 "/>
<path style=" stroke:none;fill-rule:nonzero;fill:rgb(0.392157%,0%,0%);fill-opacity:1;" d="M 171.480469 632.910156 L 183.851562 632.910156 L 183.851562 645.277344 L 171.480469 645.277344 Z M 171.480469 632.910156 "/>
<path style=" stroke:none;fill-rule:nonzero;fill:rgb(0.392157%,0%,0%);fill-opacity:1;" d="M 183.851562 632.910156 L 196.21875 632.910156 L 196.21875 645.277344 L 183.851562 645.277344 Z M 183.851562 632.910156 "/>
<path style=" stroke:none;fill-rule:nonzero;fill:rgb(0.392157%,0%,0%);fill-opacity:1;" d="M 171.480469 645.277344 L 183.851562 645.277344 L 183.851562 657.648438 L 171.480469 657.648438 Z M 171.480469 645.277344 "/>
<path style=" stroke:none;fill-rule:nonzero;fill:rgb(0.392157%,0%,0%);fill-opacity:1;" d="M 183.851562 645.277344 L 196.21875 645.277344 L 196.21875 657.648438 L 183.851562 657.648438 Z M 183.851562 645.277344 "/>
<path style=" stroke:none;fill-rule:nonzero;fill:rgb(0.392157%,0%,0%);fill-opacity:1;" d="M 171.480469 657.648438 L 183.851562 657.648438 L 183.851562 670.015625 L 171.480469 670.015625 Z M 171.480469 657.648438 "/>
<path style=" stroke:none;fill-rule:nonzero;fill:rgb(0.392157%,0%,0%);fill-opacity:1;" d="M 183.851562 657.648438 L 196.21875 657.648438 L 196.21875 670.015625 L 183.851562 670.015625 Z M 183.851562 657.648438 "/>
<path style=" stroke:none;fill-rule:nonzero;fill:rgb(0.392157%,0%,0%);fill-opacity:1;" d="M 171.480469 670.015625 L 183.851562 670.015625 L 183.851562 682.386719 L 171.480469 682.386719 Z M 171.480469 670.015625 "/>
<path style=" stroke:none;fill-rule:nonzero;fill:rgb(0.392157%,0%,0%);fill-opacity:1;" d="M 183.851562 670.015625 L 196.21875 670.015625 L 196.21875 682.386719 L 183.851562 682.386719 Z M 183.851562 670.015625 "/>
<path style=" stroke:none;fill-rule:nonzero;fill:rgb(0.392157%,0%,0%);fill-opacity:1;" d="M 183.851562 583.433594 L 196.21875 583.433594 L 196.21875 595.804688 L 183.851562 595.804688 Z M 183.851562 583.433594 "/>
<path style=" stroke:none;fill-rule:nonzero;fill:rgb(0.392157%,0%,0%);fill-opacity:1;" d="M 134.375 583.433594 L 146.742188 583.433594 L 146.742188 595.804688 L 134.375 595.804688 Z M 134.375 583.433594 "/>
<path style=" stroke:none;fill-rule:nonzero;fill:rgb(0.392157%,0%,0%);fill-opacity:1;" d="M 146.742188 620.542969 L 159.113281 620.542969 L 159.113281 632.910156 L 146.742188 632.910156 Z M 146.742188 620.542969 "/>
<path style=" stroke:none;fill-rule:nonzero;fill:rgb(0.392157%,0%,0%);fill-opacity:1;" d="M 159.113281 620.542969 L 171.480469 620.542969 L 171.480469 632.910156 L 159.113281 632.910156 Z M 159.113281 620.542969 "/>
<path style=" stroke:none;fill-rule:nonzero;fill:rgb(0.392157%,0%,0%);fill-opacity:1;" d="M 146.742188 632.910156 L 159.113281 632.910156 L 159.113281 645.277344 L 146.742188 645.277344 Z M 146.742188 632.910156 "/>
<path style=" stroke:none;fill-rule:nonzero;fill:rgb(0.392157%,0%,0%);fill-opacity:1;" d="M 159.113281 632.910156 L 171.480469 632.910156 L 171.480469 645.277344 L 159.113281 645.277344 Z M 159.113281 632.910156 "/>
<path style=" stroke:none;fill-rule:nonzero;fill:rgb(0.392157%,0%,0%);fill-opacity:1;" d="M 134.375 620.542969 L 146.742188 620.542969 L 146.742188 632.910156 L 134.375 632.910156 Z M 134.375 620.542969 "/>
<path style=" stroke:none;fill-rule:nonzero;fill:rgb(0.392157%,0%,0%);fill-opacity:1;" d="M 134.375 632.910156 L 146.742188 632.910156 L 146.742188 645.277344 L 134.375 645.277344 Z M 134.375 632.910156 "/>
<path style=" stroke:none;fill-rule:nonzero;fill:rgb(0.392157%,0%,0%);fill-opacity:1;" d="M 307.539062 583.433594 L 319.90625 583.433594 L 319.90625 595.804688 L 307.539062 595.804688 Z M 307.539062 583.433594 "/>
<path style=" stroke:none;fill-rule:nonzero;fill:rgb(0.392157%,0%,0%);fill-opacity:1;" d="M 319.90625 583.433594 L 332.277344 583.433594 L 332.277344 595.804688 L 319.90625 595.804688 Z M 319.90625 583.433594 "/>
<path style=" stroke:none;fill-rule:nonzero;fill:rgb(0.392157%,0%,0%);fill-opacity:1;" d="M 307.539062 595.804688 L 319.90625 595.804688 L 319.90625 608.171875 L 307.539062 608.171875 Z M 307.539062 595.804688 "/>
<path style=" stroke:none;fill-rule:nonzero;fill:rgb(0.392157%,0%,0%);fill-opacity:1;" d="M 319.90625 595.804688 L 332.277344 595.804688 L 332.277344 608.171875 L 319.90625 608.171875 Z M 319.90625 595.804688 "/>
<path style=" stroke:none;fill-rule:nonzero;fill:rgb(0.392157%,0%,0%);fill-opacity:1;" d="M 307.539062 608.171875 L 319.90625 608.171875 L 319.90625 620.542969 L 307.539062 620.542969 Z M 307.539062 608.171875 "/>
<path style=" stroke:none;fill-rule:nonzero;fill:rgb(0.392157%,0%,0%);fill-opacity:1;" d="M 319.90625 608.171875 L 332.277344 608.171875 L 332.277344 620.542969 L 319.90625 620.542969 Z M 319.90625 608.171875 "/>
<path style=" stroke:none;fill-rule:nonzero;fill:rgb(0.392157%,0%,0%);fill-opacity:1;" d="M 307.539062 620.542969 L 319.90625 620.542969 L 319.90625 632.910156 L 307.539062 632.910156 Z M 307.539062 620.542969 "/>
<path style=" stroke:none;fill-rule:nonzero;fill:rgb(0.392157%,0%,0%);fill-opacity:1;" d="M 319.90625 620.542969 L 332.277344 620.542969 L 332.277344 632.910156 L 319.90625 632.910156 Z M 319.90625 620.542969 "/>
<path style=" stroke:none;fill-rule:nonzero;fill:rgb(0.392157%,0%,0%);fill-opacity:1;" d="M 307.539062 632.910156 L 319.90625 632.910156 L 319.90625 645.277344 L 307.539062 645.277344 Z M 307.539062 632.910156 "/>
<path style=" stroke:none;fill-rule:nonzero;fill:rgb(0.392157%,0%,0%);fill-opacity:1;" d="M 319.90625 632.910156 L 332.277344 632.910156 L 332.277344 645.277344 L 319.90625 645.277344 Z M 319.90625 632.910156 "/>
<path style=" stroke:none;fill-rule:nonzero;fill:rgb(0.392157%,0%,0%);fill-opacity:1;" d="M 307.539062 645.277344 L 319.90625 645.277344 L 319.90625 657.648438 L 307.539062 657.648438 Z M 307.539062 645.277344 "/>
<path style=" stroke:none;fill-rule:nonzero;fill:rgb(0.392157%,0%,0%);fill-opacity:1;" d="M 319.90625 645.277344 L 332.277344 645.277344 L 332.277344 657.648438 L 319.90625 657.648438 Z M 319.90625 645.277344 "/>
<path style=" stroke:none;fill-rule:nonzero;fill:rgb(0.392157%,0%,0%);fill-opacity:1;" d="M 307.539062 657.648438 L 319.90625 657.648438 L 319.90625 670.015625 L 307.539062 670.015625 Z M 307.539062 657.648438 "/>
<path style=" stroke:none;fill-rule:nonzero;fill:rgb(0.392157%,0%,0%);fill-opacity:1;" d="M 319.90625 657.648438 L 332.277344 657.648438 L 332.277344 670.015625 L 319.90625 670.015625 Z M 319.90625 657.648438 "/>
<path style=" stroke:none;fill-rule:nonzero;fill:rgb(0.392157%,0%,0%);fill-opacity:1;" d="M 332.277344 670.015625 L 344.644531 670.015625 L 344.644531 682.386719 L 332.277344 682.386719 Z M 332.277344 670.015625 "/>
<path style=" stroke:none;fill-rule:nonzero;fill:rgb(0.392157%,0%,0%);fill-opacity:1;" d="M 319.90625 670.015625 L 332.277344 670.015625 L 332.277344 682.386719 L 319.90625 682.386719 Z M 319.90625 670.015625 "/>
<path style=" stroke:none;fill-rule:nonzero;fill:rgb(0.392157%,0%,0%);fill-opacity:1;" d="M 344.644531 571.066406 L 357.015625 571.066406 L 357.015625 583.433594 L 344.644531 583.433594 Z M 344.644531 571.066406 "/>
<path style=" stroke:none;fill-rule:nonzero;fill:rgb(0.392157%,0%,0%);fill-opacity:1;" d="M 357.015625 571.066406 L 369.382812 571.066406 L 369.382812 583.433594 L 357.015625 583.433594 Z M 357.015625 571.066406 "/>
<path style=" stroke:none;fill-rule:nonzero;fill:rgb(0.392157%,0%,0%);fill-opacity:1;" d="M 369.382812 571.066406 L 381.75 571.066406 L 381.75 583.433594 L 369.382812 583.433594 Z M 369.382812 571.066406 "/>
<path style=" stroke:none;fill-rule:nonzero;fill:rgb(0.392157%,0%,0%);fill-opacity:1;" d="M 344.644531 583.433594 L 357.015625 583.433594 L 357.015625 595.804688 L 344.644531 595.804688 Z M 344.644531 583.433594 "/>
<path style=" stroke:none;fill-rule:nonzero;fill:rgb(0.392157%,0%,0%);fill-opacity:1;" d="M 357.015625 583.433594 L 369.382812 583.433594 L 369.382812 595.804688 L 357.015625 595.804688 Z M 357.015625 583.433594 "/>
<path style=" stroke:none;fill-rule:nonzero;fill:rgb(0.392157%,0%,0%);fill-opacity:1;" d="M 319.90625 571.066406 L 332.277344 571.066406 L 332.277344 583.433594 L 319.90625 583.433594 Z M 319.90625 571.066406 "/>
<path style=" stroke:none;fill-rule:nonzero;fill:rgb(0.392157%,0%,0%);fill-opacity:1;" d="M 332.277344 571.066406 L 344.644531 571.066406 L 344.644531 583.433594 L 332.277344 583.433594 Z M 332.277344 571.066406 "/>
<path style=" stroke:none;fill-rule:nonzero;fill:rgb(0.392157%,0%,0%);fill-opacity:1;" d="M 319.90625 583.433594 L 332.277344 583.433594 L 332.277344 595.804688 L 319.90625 595.804688 Z M 319.90625 583.433594 "/>
<path style=" stroke:none;fill-rule:nonzero;fill:rgb(0.392157%,0%,0%);fill-opacity:1;" d="M 369.382812 583.433594 L 381.753906 583.433594 L 381.753906 595.804688 L 369.382812 595.804688 Z M 369.382812 583.433594 "/>
<path style=" stroke:none;fill-rule:nonzero;fill:rgb(0.392157%,0%,0%);fill-opacity:1;" d="M 369.382812 595.804688 L 381.753906 595.804688 L 381.753906 608.171875 L 369.382812 608.171875 Z M 369.382812 595.804688 "/>
<path style=" stroke:none;fill-rule:nonzero;fill:rgb(0.392157%,0%,0%);fill-opacity:1;" d="M 381.75 595.804688 L 394.121094 595.804688 L 394.121094 608.171875 L 381.75 608.171875 Z M 381.75 595.804688 "/>
<path style=" stroke:none;fill-rule:nonzero;fill:rgb(0.392157%,0%,0%);fill-opacity:1;" d="M 369.382812 608.171875 L 381.753906 608.171875 L 381.753906 620.542969 L 369.382812 620.542969 Z M 369.382812 608.171875 "/>
<path style=" stroke:none;fill-rule:nonzero;fill:rgb(0.392157%,0%,0%);fill-opacity:1;" d="M 381.75 608.171875 L 394.121094 608.171875 L 394.121094 620.542969 L 381.75 620.542969 Z M 381.75 608.171875 "/>
<path style=" stroke:none;fill-rule:nonzero;fill:rgb(0.392157%,0%,0%);fill-opacity:1;" d="M 369.382812 620.542969 L 381.753906 620.542969 L 381.753906 632.910156 L 369.382812 632.910156 Z M 369.382812 620.542969 "/>
<path style=" stroke:none;fill-rule:nonzero;fill:rgb(0.392157%,0%,0%);fill-opacity:1;" d="M 381.75 620.542969 L 394.121094 620.542969 L 394.121094 632.910156 L 381.75 632.910156 Z M 381.75 620.542969 "/>
<path style=" stroke:none;fill-rule:nonzero;fill:rgb(0.392157%,0%,0%);fill-opacity:1;" d="M 369.382812 632.910156 L 381.753906 632.910156 L 381.753906 645.277344 L 369.382812 645.277344 Z M 369.382812 632.910156 "/>
<path style=" stroke:none;fill-rule:nonzero;fill:rgb(0.392157%,0%,0%);fill-opacity:1;" d="M 381.75 632.910156 L 394.121094 632.910156 L 394.121094 645.277344 L 381.75 645.277344 Z M 381.75 632.910156 "/>
<path style=" stroke:none;fill-rule:nonzero;fill:rgb(0.392157%,0%,0%);fill-opacity:1;" d="M 369.382812 645.277344 L 381.753906 645.277344 L 381.753906 657.648438 L 369.382812 657.648438 Z M 369.382812 645.277344 "/>
<path style=" stroke:none;fill-rule:nonzero;fill:rgb(0.392157%,0%,0%);fill-opacity:1;" d="M 381.75 645.277344 L 394.121094 645.277344 L 394.121094 657.648438 L 381.75 657.648438 Z M 381.75 645.277344 "/>
<path style=" stroke:none;fill-rule:nonzero;fill:rgb(0.392157%,0%,0%);fill-opacity:1;" d="M 369.382812 657.648438 L 381.75 657.648438 L 381.75 670.015625 L 369.382812 670.015625 Z M 369.382812 657.648438 "/>
<path style=" stroke:none;fill-rule:nonzero;fill:rgb(0.392157%,0%,0%);fill-opacity:1;" d="M 381.75 657.648438 L 394.121094 657.648438 L 394.121094 670.015625 L 381.75 670.015625 Z M 381.75 657.648438 "/>
<path style=" stroke:none;fill-rule:nonzero;fill:rgb(0.392157%,0%,0%);fill-opacity:1;" d="M 369.382812 670.015625 L 381.75 670.015625 L 381.75 682.386719 L 369.382812 682.386719 Z M 369.382812 670.015625 "/>
<path style=" stroke:none;fill-rule:nonzero;fill:rgb(0.392157%,0%,0%);fill-opacity:1;" d="M 381.753906 583.433594 L 394.121094 583.433594 L 394.121094 595.804688 L 381.753906 595.804688 Z M 381.753906 583.433594 "/>
<path style=" stroke:none;fill-rule:nonzero;fill:rgb(0.392157%,0%,0%);fill-opacity:1;" d="M 332.277344 583.433594 L 344.644531 583.433594 L 344.644531 595.804688 L 332.277344 595.804688 Z M 332.277344 583.433594 "/>
<path style=" stroke:none;fill-rule:nonzero;fill:rgb(0.392157%,0%,0%);fill-opacity:1;" d="M 357.015625 670.015625 L 369.382812 670.015625 L 369.382812 682.386719 L 357.015625 682.386719 Z M 357.015625 670.015625 "/>
<path style=" stroke:none;fill-rule:nonzero;fill:rgb(0.392157%,0%,0%);fill-opacity:1;" d="M 344.644531 657.648438 L 357.015625 657.648438 L 357.015625 670.015625 L 344.644531 670.015625 Z M 344.644531 657.648438 "/>
<path style=" stroke:none;fill-rule:nonzero;fill:rgb(0.392157%,0%,0%);fill-opacity:1;" d="M 357.015625 657.648438 L 369.382812 657.648438 L 369.382812 670.015625 L 357.015625 670.015625 Z M 357.015625 657.648438 "/>
<path style=" stroke:none;fill-rule:nonzero;fill:rgb(0.392157%,0%,0%);fill-opacity:1;" d="M 344.644531 670.015625 L 357.015625 670.015625 L 357.015625 682.386719 L 344.644531 682.386719 Z M 344.644531 670.015625 "/>
<path style=" stroke:none;fill-rule:nonzero;fill:rgb(0.392157%,0%,0%);fill-opacity:1;" d="M 332.277344 657.648438 L 344.644531 657.648438 L 344.644531 670.015625 L 332.277344 670.015625 Z M 332.277344 657.648438 "/>
<path style=" stroke:none;fill-rule:nonzero;fill:rgb(0.392157%,0%,0%);fill-opacity:1;" d="M 239.511719 583.433594 L 251.878906 583.433594 L 251.878906 595.804688 L 239.511719 595.804688 Z M 239.511719 583.433594 "/>
<path style=" stroke:none;fill-rule:nonzero;fill:rgb(0.392157%,0%,0%);fill-opacity:1;" d="M 251.878906 583.433594 L 264.246094 583.433594 L 264.246094 595.804688 L 251.878906 595.804688 Z M 251.878906 583.433594 "/>
<path style=" stroke:none;fill-rule:nonzero;fill:rgb(0.392157%,0%,0%);fill-opacity:1;" d="M 239.511719 595.804688 L 251.878906 595.804688 L 251.878906 608.171875 L 239.511719 608.171875 Z M 239.511719 595.804688 "/>
<path style=" stroke:none;fill-rule:nonzero;fill:rgb(0.392157%,0%,0%);fill-opacity:1;" d="M 251.878906 595.804688 L 264.246094 595.804688 L 264.246094 608.171875 L 251.878906 608.171875 Z M 251.878906 595.804688 "/>
<path style=" stroke:none;fill-rule:nonzero;fill:rgb(0.392157%,0%,0%);fill-opacity:1;" d="M 239.511719 608.171875 L 251.878906 608.171875 L 251.878906 620.542969 L 239.511719 620.542969 Z M 239.511719 608.171875 "/>
<path style=" stroke:none;fill-rule:nonzero;fill:rgb(0.392157%,0%,0%);fill-opacity:1;" d="M 251.878906 608.171875 L 264.246094 608.171875 L 264.246094 620.542969 L 251.878906 620.542969 Z M 251.878906 608.171875 "/>
<path style=" stroke:none;fill-rule:nonzero;fill:rgb(0.392157%,0%,0%);fill-opacity:1;" d="M 239.511719 620.542969 L 251.878906 620.542969 L 251.878906 632.910156 L 239.511719 632.910156 Z M 239.511719 620.542969 "/>
<path style=" stroke:none;fill-rule:nonzero;fill:rgb(0.392157%,0%,0%);fill-opacity:1;" d="M 251.878906 620.542969 L 264.246094 620.542969 L 264.246094 632.910156 L 251.878906 632.910156 Z M 251.878906 620.542969 "/>
<path style=" stroke:none;fill-rule:nonzero;fill:rgb(0.392157%,0%,0%);fill-opacity:1;" d="M 239.511719 632.910156 L 251.878906 632.910156 L 251.878906 645.277344 L 239.511719 645.277344 Z M 239.511719 632.910156 "/>
<path style=" stroke:none;fill-rule:nonzero;fill:rgb(0.392157%,0%,0%);fill-opacity:1;" d="M 251.878906 632.910156 L 264.246094 632.910156 L 264.246094 645.277344 L 251.878906 645.277344 Z M 251.878906 632.910156 "/>
<path style=" stroke:none;fill-rule:nonzero;fill:rgb(0.392157%,0%,0%);fill-opacity:1;" d="M 239.511719 645.277344 L 251.878906 645.277344 L 251.878906 657.648438 L 239.511719 657.648438 Z M 239.511719 645.277344 "/>
<path style=" stroke:none;fill-rule:nonzero;fill:rgb(0.392157%,0%,0%);fill-opacity:1;" d="M 251.878906 645.277344 L 264.246094 645.277344 L 264.246094 657.648438 L 251.878906 657.648438 Z M 251.878906 645.277344 "/>
<path style=" stroke:none;fill-rule:nonzero;fill:rgb(0.392157%,0%,0%);fill-opacity:1;" d="M 239.511719 657.648438 L 251.878906 657.648438 L 251.878906 670.015625 L 239.511719 670.015625 Z M 239.511719 657.648438 "/>
<path style=" stroke:none;fill-rule:nonzero;fill:rgb(0.392157%,0%,0%);fill-opacity:1;" d="M 251.878906 657.648438 L 264.246094 657.648438 L 264.246094 670.015625 L 251.878906 670.015625 Z M 251.878906 657.648438 "/>
<path style=" stroke:none;fill-rule:nonzero;fill:rgb(0.392157%,0%,0%);fill-opacity:1;" d="M 239.511719 670.015625 L 251.878906 670.015625 L 251.878906 682.386719 L 239.511719 682.386719 Z M 239.511719 670.015625 "/>
<path style=" stroke:none;fill-rule:nonzero;fill:rgb(0.392157%,0%,0%);fill-opacity:1;" d="M 251.878906 670.015625 L 264.246094 670.015625 L 264.246094 682.386719 L 251.878906 682.386719 Z M 251.878906 670.015625 "/>
<path style=" stroke:none;fill-rule:nonzero;fill:rgb(0.392157%,0%,0%);fill-opacity:1;" d="M 251.878906 571.066406 L 264.246094 571.066406 L 264.246094 583.433594 L 251.878906 583.433594 Z M 251.878906 571.066406 "/>
<path style=" stroke:none;fill-rule:nonzero;fill:rgb(0.392157%,0%,0%);fill-opacity:1;" d="M 264.246094 571.066406 L 276.617188 571.066406 L 276.617188 583.433594 L 264.246094 583.433594 Z M 264.246094 571.066406 "/>
<path style=" stroke:none;fill-rule:nonzero;fill:rgb(0.392157%,0%,0%);fill-opacity:1;" d="M 276.617188 571.066406 L 288.984375 571.066406 L 288.984375 583.433594 L 276.617188 583.433594 Z M 276.617188 571.066406 "/>
<path style=" stroke:none;fill-rule:nonzero;fill:rgb(0.392157%,0%,0%);fill-opacity:1;" d="M 251.878906 583.433594 L 264.246094 583.433594 L 264.246094 595.804688 L 251.878906 595.804688 Z M 251.878906 583.433594 "/>
<path style=" stroke:none;fill-rule:nonzero;fill:rgb(0.392157%,0%,0%);fill-opacity:1;" d="M 264.246094 583.433594 L 276.617188 583.433594 L 276.617188 595.804688 L 264.246094 595.804688 Z M 264.246094 583.433594 "/>
<path style=" stroke:none;fill-rule:nonzero;fill:rgb(0.392157%,0%,0%);fill-opacity:1;" d="M 227.140625 571.066406 L 239.511719 571.066406 L 239.511719 583.433594 L 227.140625 583.433594 Z M 227.140625 571.066406 "/>
<path style=" stroke:none;fill-rule:nonzero;fill:rgb(0.392157%,0%,0%);fill-opacity:1;" d="M 239.511719 571.066406 L 251.878906 571.066406 L 251.878906 583.433594 L 239.511719 583.433594 Z M 239.511719 571.066406 "/>
<path style=" stroke:none;fill-rule:nonzero;fill:rgb(0.392157%,0%,0%);fill-opacity:1;" d="M 251.878906 583.433594 L 264.246094 583.433594 L 264.246094 595.804688 L 251.878906 595.804688 Z M 251.878906 583.433594 "/>
<path style=" stroke:none;fill-rule:nonzero;fill:rgb(0.392157%,0%,0%);fill-opacity:1;" d="M 276.617188 583.433594 L 288.984375 583.433594 L 288.984375 595.804688 L 276.617188 595.804688 Z M 276.617188 583.433594 "/>
<path style=" stroke:none;fill-rule:nonzero;fill:rgb(0.392157%,0%,0%);fill-opacity:1;" d="M 227.140625 583.433594 L 239.511719 583.433594 L 239.511719 595.804688 L 227.140625 595.804688 Z M 227.140625 583.433594 "/>
<path style=" stroke:none;fill-rule:nonzero;fill:rgb(0.392157%,0%,0%);fill-opacity:1;" d="M 239.511719 583.433594 L 251.878906 583.433594 L 251.878906 595.804688 L 239.511719 595.804688 Z M 239.511719 583.433594 "/>
<path style=" stroke:none;fill-rule:nonzero;fill:rgb(0.392157%,0%,0%);fill-opacity:1;" d="M 251.878906 620.542969 L 264.246094 620.542969 L 264.246094 632.910156 L 251.878906 632.910156 Z M 251.878906 620.542969 "/>
<path style=" stroke:none;fill-rule:nonzero;fill:rgb(0.392157%,0%,0%);fill-opacity:1;" d="M 251.878906 632.910156 L 264.246094 632.910156 L 264.246094 645.277344 L 251.878906 645.277344 Z M 251.878906 632.910156 "/>
<path style=" stroke:none;fill-rule:nonzero;fill:rgb(0.392157%,0%,0%);fill-opacity:1;" d="M 239.511719 620.542969 L 251.878906 620.542969 L 251.878906 632.910156 L 239.511719 632.910156 Z M 239.511719 620.542969 "/>
<path style=" stroke:none;fill-rule:nonzero;fill:rgb(0.392157%,0%,0%);fill-opacity:1;" d="M 239.511719 632.910156 L 251.878906 632.910156 L 251.878906 645.277344 L 239.511719 645.277344 Z M 239.511719 632.910156 "/>
<path style=" stroke:none;fill-rule:nonzero;fill:rgb(0.392157%,0%,0%);fill-opacity:1;" d="M 412.675781 583.433594 L 425.042969 583.433594 L 425.042969 595.804688 L 412.675781 595.804688 Z M 412.675781 583.433594 "/>
<path style=" stroke:none;fill-rule:nonzero;fill:rgb(0.392157%,0%,0%);fill-opacity:1;" d="M 425.042969 583.433594 L 437.410156 583.433594 L 437.410156 595.804688 L 425.042969 595.804688 Z M 425.042969 583.433594 "/>
<path style=" stroke:none;fill-rule:nonzero;fill:rgb(0.392157%,0%,0%);fill-opacity:1;" d="M 412.675781 595.804688 L 425.042969 595.804688 L 425.042969 608.171875 L 412.675781 608.171875 Z M 412.675781 595.804688 "/>
<path style=" stroke:none;fill-rule:nonzero;fill:rgb(0.392157%,0%,0%);fill-opacity:1;" d="M 425.042969 595.804688 L 437.410156 595.804688 L 437.410156 608.171875 L 425.042969 608.171875 Z M 425.042969 595.804688 "/>
<path style=" stroke:none;fill-rule:nonzero;fill:rgb(0.392157%,0%,0%);fill-opacity:1;" d="M 412.675781 608.171875 L 425.042969 608.171875 L 425.042969 620.542969 L 412.675781 620.542969 Z M 412.675781 608.171875 "/>
<path style=" stroke:none;fill-rule:nonzero;fill:rgb(0.392157%,0%,0%);fill-opacity:1;" d="M 425.042969 608.171875 L 437.410156 608.171875 L 437.410156 620.542969 L 425.042969 620.542969 Z M 425.042969 608.171875 "/>
<path style=" stroke:none;fill-rule:nonzero;fill:rgb(0.392157%,0%,0%);fill-opacity:1;" d="M 412.675781 620.542969 L 425.042969 620.542969 L 425.042969 632.910156 L 412.675781 632.910156 Z M 412.675781 620.542969 "/>
<path style=" stroke:none;fill-rule:nonzero;fill:rgb(0.392157%,0%,0%);fill-opacity:1;" d="M 425.042969 620.542969 L 437.410156 620.542969 L 437.410156 632.910156 L 425.042969 632.910156 Z M 425.042969 620.542969 "/>
<path style=" stroke:none;fill-rule:nonzero;fill:rgb(0.392157%,0%,0%);fill-opacity:1;" d="M 412.675781 632.910156 L 425.042969 632.910156 L 425.042969 645.277344 L 412.675781 645.277344 Z M 412.675781 632.910156 "/>
<path style=" stroke:none;fill-rule:nonzero;fill:rgb(0.392157%,0%,0%);fill-opacity:1;" d="M 425.042969 632.910156 L 437.410156 632.910156 L 437.410156 645.277344 L 425.042969 645.277344 Z M 425.042969 632.910156 "/>
<path style=" stroke:none;fill-rule:nonzero;fill:rgb(0.392157%,0%,0%);fill-opacity:1;" d="M 412.675781 645.277344 L 425.042969 645.277344 L 425.042969 657.648438 L 412.675781 657.648438 Z M 412.675781 645.277344 "/>
<path style=" stroke:none;fill-rule:nonzero;fill:rgb(0.392157%,0%,0%);fill-opacity:1;" d="M 425.042969 645.277344 L 437.410156 645.277344 L 437.410156 657.648438 L 425.042969 657.648438 Z M 425.042969 645.277344 "/>
<path style=" stroke:none;fill-rule:nonzero;fill:rgb(0.392157%,0%,0%);fill-opacity:1;" d="M 412.675781 657.648438 L 425.042969 657.648438 L 425.042969 670.015625 L 412.675781 670.015625 Z M 412.675781 657.648438 "/>
<path style=" stroke:none;fill-rule:nonzero;fill:rgb(0.392157%,0%,0%);fill-opacity:1;" d="M 425.042969 657.648438 L 437.410156 657.648438 L 437.410156 670.015625 L 425.042969 670.015625 Z M 425.042969 657.648438 "/>
<path style=" stroke:none;fill-rule:nonzero;fill:rgb(0.392157%,0%,0%);fill-opacity:1;" d="M 412.675781 670.015625 L 425.042969 670.015625 L 425.042969 682.386719 L 412.675781 682.386719 Z M 412.675781 670.015625 "/>
<path style=" stroke:none;fill-rule:nonzero;fill:rgb(0.392157%,0%,0%);fill-opacity:1;" d="M 425.042969 670.015625 L 437.410156 670.015625 L 437.410156 682.386719 L 425.042969 682.386719 Z M 425.042969 670.015625 "/>
<path style=" stroke:none;fill-rule:nonzero;fill:rgb(0.392157%,0%,0%);fill-opacity:1;" d="M 425.042969 571.066406 L 437.410156 571.066406 L 437.410156 583.433594 L 425.042969 583.433594 Z M 425.042969 571.066406 "/>
<path style=" stroke:none;fill-rule:nonzero;fill:rgb(0.392157%,0%,0%);fill-opacity:1;" d="M 437.410156 583.433594 L 449.78125 583.433594 L 449.78125 595.804688 L 437.410156 595.804688 Z M 437.410156 583.433594 "/>
<path style=" stroke:none;fill-rule:nonzero;fill:rgb(0.392157%,0%,0%);fill-opacity:1;" d="M 449.78125 595.804688 L 462.148438 595.804688 L 462.148438 608.171875 L 449.78125 608.171875 Z M 449.78125 595.804688 "/>
<path style=" stroke:none;fill-rule:nonzero;fill:rgb(0.392157%,0%,0%);fill-opacity:1;" d="M 425.042969 583.433594 L 437.410156 583.433594 L 437.410156 595.804688 L 425.042969 595.804688 Z M 425.042969 583.433594 "/>
<path style=" stroke:none;fill-rule:nonzero;fill:rgb(0.392157%,0%,0%);fill-opacity:1;" d="M 412.675781 571.066406 L 425.042969 571.066406 L 425.042969 583.433594 L 412.675781 583.433594 Z M 412.675781 571.066406 "/>
<path style=" stroke:none;fill-rule:nonzero;fill:rgb(0.392157%,0%,0%);fill-opacity:1;" d="M 425.042969 583.433594 L 437.410156 583.433594 L 437.410156 595.804688 L 425.042969 595.804688 Z M 425.042969 583.433594 "/>
<path style=" stroke:none;fill-rule:nonzero;fill:rgb(0.392157%,0%,0%);fill-opacity:1;" d="M 412.675781 583.433594 L 425.042969 583.433594 L 425.042969 595.804688 L 412.675781 595.804688 Z M 412.675781 583.433594 "/>
<path style=" stroke:none;fill-rule:nonzero;fill:rgb(0.392157%,0%,0%);fill-opacity:1;" d="M 425.042969 620.542969 L 437.410156 620.542969 L 437.410156 632.910156 L 425.042969 632.910156 Z M 425.042969 620.542969 "/>
<path style=" stroke:none;fill-rule:nonzero;fill:rgb(0.392157%,0%,0%);fill-opacity:1;" d="M 425.042969 632.910156 L 437.410156 632.910156 L 437.410156 645.277344 L 425.042969 645.277344 Z M 425.042969 632.910156 "/>
<path style=" stroke:none;fill-rule:nonzero;fill:rgb(0.392157%,0%,0%);fill-opacity:1;" d="M 412.675781 620.542969 L 425.042969 620.542969 L 425.042969 632.910156 L 412.675781 632.910156 Z M 412.675781 620.542969 "/>
<path style=" stroke:none;fill-rule:nonzero;fill:rgb(0.392157%,0%,0%);fill-opacity:1;" d="M 412.675781 632.910156 L 425.042969 632.910156 L 425.042969 645.277344 L 412.675781 645.277344 Z M 412.675781 632.910156 "/>
<path style=" stroke:none;fill-rule:nonzero;fill:rgb(0.392157%,0%,0%);fill-opacity:1;" d="M 474.519531 583.433594 L 486.886719 583.433594 L 486.886719 595.804688 L 474.519531 595.804688 Z M 474.519531 583.433594 "/>
<path style=" stroke:none;fill-rule:nonzero;fill:rgb(0.392157%,0%,0%);fill-opacity:1;" d="M 486.886719 583.433594 L 499.257812 583.433594 L 499.257812 595.804688 L 486.886719 595.804688 Z M 486.886719 583.433594 "/>
<path style=" stroke:none;fill-rule:nonzero;fill:rgb(0.392157%,0%,0%);fill-opacity:1;" d="M 474.519531 595.804688 L 486.886719 595.804688 L 486.886719 608.171875 L 474.519531 608.171875 Z M 474.519531 595.804688 "/>
<path style=" stroke:none;fill-rule:nonzero;fill:rgb(0.392157%,0%,0%);fill-opacity:1;" d="M 486.886719 595.804688 L 499.257812 595.804688 L 499.257812 608.171875 L 486.886719 608.171875 Z M 486.886719 595.804688 "/>
<path style=" stroke:none;fill-rule:nonzero;fill:rgb(0.392157%,0%,0%);fill-opacity:1;" d="M 474.519531 608.171875 L 486.886719 608.171875 L 486.886719 620.542969 L 474.519531 620.542969 Z M 474.519531 608.171875 "/>
<path style=" stroke:none;fill-rule:nonzero;fill:rgb(0.392157%,0%,0%);fill-opacity:1;" d="M 486.886719 608.171875 L 499.257812 608.171875 L 499.257812 620.542969 L 486.886719 620.542969 Z M 486.886719 608.171875 "/>
<path style=" stroke:none;fill-rule:nonzero;fill:rgb(0.392157%,0%,0%);fill-opacity:1;" d="M 474.519531 620.542969 L 486.886719 620.542969 L 486.886719 632.910156 L 474.519531 632.910156 Z M 474.519531 620.542969 "/>
<path style=" stroke:none;fill-rule:nonzero;fill:rgb(0.392157%,0%,0%);fill-opacity:1;" d="M 486.886719 620.542969 L 499.257812 620.542969 L 499.257812 632.910156 L 486.886719 632.910156 Z M 486.886719 620.542969 "/>
<path style=" stroke:none;fill-rule:nonzero;fill:rgb(0.392157%,0%,0%);fill-opacity:1;" d="M 474.519531 632.910156 L 486.886719 632.910156 L 486.886719 645.277344 L 474.519531 645.277344 Z M 474.519531 632.910156 "/>
<path style=" stroke:none;fill-rule:nonzero;fill:rgb(0.392157%,0%,0%);fill-opacity:1;" d="M 486.886719 632.910156 L 499.257812 632.910156 L 499.257812 645.277344 L 486.886719 645.277344 Z M 486.886719 632.910156 "/>
<path style=" stroke:none;fill-rule:nonzero;fill:rgb(0.392157%,0%,0%);fill-opacity:1;" d="M 474.519531 645.277344 L 486.886719 645.277344 L 486.886719 657.648438 L 474.519531 657.648438 Z M 474.519531 645.277344 "/>
<path style=" stroke:none;fill-rule:nonzero;fill:rgb(0.392157%,0%,0%);fill-opacity:1;" d="M 486.886719 645.277344 L 499.257812 645.277344 L 499.257812 657.648438 L 486.886719 657.648438 Z M 486.886719 645.277344 "/>
<path style=" stroke:none;fill-rule:nonzero;fill:rgb(0.392157%,0%,0%);fill-opacity:1;" d="M 474.519531 657.648438 L 486.886719 657.648438 L 486.886719 670.015625 L 474.519531 670.015625 Z M 474.519531 657.648438 "/>
<path style=" stroke:none;fill-rule:nonzero;fill:rgb(0.392157%,0%,0%);fill-opacity:1;" d="M 486.886719 657.648438 L 499.257812 657.648438 L 499.257812 670.015625 L 486.886719 670.015625 Z M 486.886719 657.648438 "/>
<path style=" stroke:none;fill-rule:nonzero;fill:rgb(0.392157%,0%,0%);fill-opacity:1;" d="M 474.519531 670.015625 L 486.886719 670.015625 L 486.886719 682.386719 L 474.519531 682.386719 Z M 474.519531 670.015625 "/>
<path style=" stroke:none;fill-rule:nonzero;fill:rgb(0.392157%,0%,0%);fill-opacity:1;" d="M 486.886719 670.015625 L 499.257812 670.015625 L 499.257812 682.386719 L 486.886719 682.386719 Z M 486.886719 670.015625 "/>
<path style=" stroke:none;fill-rule:nonzero;fill:rgb(0.392157%,0%,0%);fill-opacity:1;" d="M 486.886719 571.066406 L 499.257812 571.066406 L 499.257812 583.433594 L 486.886719 583.433594 Z M 486.886719 571.066406 "/>
<path style=" stroke:none;fill-rule:nonzero;fill:rgb(0.392157%,0%,0%);fill-opacity:1;" d="M 486.886719 583.433594 L 499.257812 583.433594 L 499.257812 595.804688 L 486.886719 595.804688 Z M 486.886719 583.433594 "/>
<path style=" stroke:none;fill-rule:nonzero;fill:rgb(0.392157%,0%,0%);fill-opacity:1;" d="M 474.519531 571.066406 L 486.886719 571.066406 L 486.886719 583.433594 L 474.519531 583.433594 Z M 474.519531 571.066406 "/>
<path style=" stroke:none;fill-rule:nonzero;fill:rgb(0.392157%,0%,0%);fill-opacity:1;" d="M 486.886719 583.433594 L 499.257812 583.433594 L 499.257812 595.804688 L 486.886719 595.804688 Z M 486.886719 583.433594 "/>
<path style=" stroke:none;fill-rule:nonzero;fill:rgb(0.392157%,0%,0%);fill-opacity:1;" d="M 474.519531 583.433594 L 486.886719 583.433594 L 486.886719 595.804688 L 474.519531 595.804688 Z M 474.519531 583.433594 "/>
<path style=" stroke:none;fill-rule:nonzero;fill:rgb(0.392157%,0%,0%);fill-opacity:1;" d="M 486.886719 620.542969 L 499.257812 620.542969 L 499.257812 632.910156 L 486.886719 632.910156 Z M 486.886719 620.542969 "/>
<path style=" stroke:none;fill-rule:nonzero;fill:rgb(0.392157%,0%,0%);fill-opacity:1;" d="M 486.886719 632.910156 L 499.257812 632.910156 L 499.257812 645.277344 L 486.886719 645.277344 Z M 486.886719 632.910156 "/>
<path style=" stroke:none;fill-rule:nonzero;fill:rgb(0.392157%,0%,0%);fill-opacity:1;" d="M 474.519531 620.542969 L 486.886719 620.542969 L 486.886719 632.910156 L 474.519531 632.910156 Z M 474.519531 620.542969 "/>
<path style=" stroke:none;fill-rule:nonzero;fill:rgb(0.392157%,0%,0%);fill-opacity:1;" d="M 474.519531 632.910156 L 486.886719 632.910156 L 486.886719 645.277344 L 474.519531 645.277344 Z M 474.519531 632.910156 "/>
<path style=" stroke:none;fill-rule:nonzero;fill:rgb(0.392157%,0%,0%);fill-opacity:1;" d="M 214.773438 571.066406 L 227.140625 571.066406 L 227.140625 583.433594 L 214.773438 583.433594 Z M 214.773438 571.066406 "/>
<path style=" stroke:none;fill-rule:nonzero;fill:rgb(0.392157%,0%,0%);fill-opacity:1;" d="M 214.773438 583.433594 L 227.140625 583.433594 L 227.140625 595.804688 L 214.773438 595.804688 Z M 214.773438 583.433594 "/>
<path style=" stroke:none;fill-rule:nonzero;fill:rgb(0.392157%,0%,0%);fill-opacity:1;" d="M 437.410156 595.804688 L 449.78125 595.804688 L 449.78125 608.171875 L 437.410156 608.171875 Z M 437.410156 595.804688 "/>
<path style=" stroke:none;fill-rule:nonzero;fill:rgb(0.392157%,0%,0%);fill-opacity:1;" d="M 449.78125 608.171875 L 462.148438 608.171875 L 462.148438 620.542969 L 449.78125 620.542969 Z M 449.78125 608.171875 "/>
<path style=" stroke:none;fill-rule:nonzero;fill:rgb(0.392157%,0%,0%);fill-opacity:1;" d="M 462.148438 595.804688 L 474.519531 595.804688 L 474.519531 608.171875 L 462.148438 608.171875 Z M 462.148438 595.804688 "/>
<path style=" stroke:none;fill-rule:nonzero;fill:rgb(0.392157%,0%,0%);fill-opacity:1;" d="M 462.148438 583.433594 L 474.519531 583.433594 L 474.519531 595.804688 L 462.148438 595.804688 Z M 462.148438 583.433594 "/>
</g>
</svg>
